<svg width="58" height="19" viewBox="0 0 58 19" fill="none" xmlns="http://www.w3.org/2000/svg">
<path d="M9 4.32L8.088 17.64C8.072 17.88 7.984 18 7.824 18H6.504C5.608 18 4.968 17.824 4.584 17.472C4.2 17.12 4.008 16.616 4.008 15.96C4.008 15.72 4.016 15.36 4.032 14.88C4.064 14.4 4.104 13.84 4.152 13.2C4.2 12.544 4.248 11.84 4.296 11.088C4.36 10.32 4.424 9.552 4.488 8.784C4.552 8 4.608 7.224 4.656 6.456C4.72 5.688 4.776 4.976 4.824 4.32H0.984C0.808 4.32 0.72 4.208 0.72 3.984L0.792 2.64C0.808 2.432 0.84 2.232 0.888 2.04C0.952 1.832 1.048 1.648 1.176 1.488C1.304 1.328 1.464 1.2 1.656 1.104C1.864 1.008 2.112 0.959999 2.4 0.959999H13.128C13.224 0.959999 13.312 0.983999 13.392 1.032C13.472 1.08 13.512 1.168 13.512 1.296L13.416 2.712C13.384 3.192 13.248 3.584 13.008 3.888C12.784 4.176 12.312 4.32 11.592 4.32H9ZM18.2233 18.24C17.5193 18.24 16.8153 18.152 16.1113 17.976C15.4233 17.8 14.7993 17.496 14.2393 17.064C13.6953 16.632 13.2473 16.056 12.8953 15.336C12.5433 14.616 12.3673 13.712 12.3673 12.624C12.3673 12.224 12.3993 11.744 12.4633 11.184C12.5273 10.624 12.6473 10.048 12.8233 9.456C13.0153 8.864 13.2713 8.28 13.5913 7.704C13.9273 7.112 14.3593 6.584 14.8873 6.12C15.4153 5.656 16.0553 5.28 16.8073 4.992C17.5593 4.704 18.4553 4.56 19.4953 4.56C20.3273 4.56 21.0313 4.656 21.6073 4.848C22.1833 5.04 22.6473 5.304 22.9993 5.64C23.3513 5.96 23.6073 6.336 23.7673 6.768C23.9273 7.2 24.0073 7.664 24.0073 8.16C24.0073 8.896 23.8553 9.52 23.5513 10.032C23.2633 10.544 22.8793 10.976 22.3993 11.328C21.9353 11.664 21.4153 11.928 20.8393 12.12C20.2633 12.312 19.6953 12.464 19.1353 12.576C18.5753 12.672 18.0553 12.736 17.5753 12.768C17.1113 12.784 16.7513 12.792 16.4953 12.792C16.4953 13.096 16.5353 13.4 16.6153 13.704C16.7113 13.992 16.8473 14.248 17.0233 14.472C17.1993 14.696 17.4313 14.88 17.7193 15.024C18.0073 15.168 18.3593 15.24 18.7753 15.24C19.1913 15.24 19.5113 15.176 19.7353 15.048C19.9753 14.904 20.1673 14.752 20.3113 14.592C20.4553 14.416 20.5753 14.264 20.6713 14.136C20.7833 13.992 20.9273 13.92 21.1033 13.92C21.1833 13.92 21.3193 13.944 21.5113 13.992C21.7193 14.024 21.9273 14.104 22.1353 14.232C22.3433 14.36 22.5273 14.536 22.6873 14.76C22.8473 14.984 22.9273 15.272 22.9273 15.624C22.9273 16.088 22.7833 16.488 22.4953 16.824C22.2073 17.16 21.8313 17.432 21.3673 17.64C20.9193 17.848 20.4153 18 19.8553 18.096C19.2953 18.192 18.7513 18.24 18.2233 18.24ZM18.6793 7.752C18.3273 7.752 18.0233 7.856 17.7673 8.064C17.5273 8.256 17.3193 8.504 17.1433 8.808C16.9833 9.112 16.8553 9.448 16.7593 9.816C16.6793 10.184 16.6153 10.536 16.5673 10.872C17.5593 10.856 18.3593 10.688 18.9673 10.368C19.5913 10.048 19.9033 9.592 19.9033 9C19.9033 8.68 19.7993 8.392 19.5913 8.136C19.3993 7.88 19.0953 7.752 18.6793 7.752ZM28.2368 18.216C27.2448 18.216 26.5328 17.952 26.1008 17.424C25.6688 16.896 25.4528 16.024 25.4528 14.808C25.4528 14.616 25.4608 14.376 25.4768 14.088C25.5088 13.8 25.5408 13.432 25.5728 12.984C25.6208 12.52 25.6768 11.952 25.7408 11.28C25.8048 10.608 25.8688 9.792 25.9328 8.832C26.0128 7.872 26.0928 6.744 26.1728 5.448C26.2688 4.152 26.3648 2.648 26.4608 0.935999C26.4768 0.583999 26.5168 0.375999 26.5808 0.311999C26.6288 0.263999 26.7568 0.24 26.9648 0.24H27.9008C28.3808 0.24 28.7808 0.296 29.1008 0.407999C29.4208 0.52 29.6768 0.671999 29.8688 0.863999C30.0608 1.056 30.1968 1.28 30.2768 1.536C30.3568 1.776 30.3968 2.032 30.3968 2.304C30.3968 2.624 30.3728 3.088 30.3248 3.696C30.2928 4.288 30.2448 4.96 30.1808 5.712C30.1168 6.464 30.0528 7.248 29.9888 8.064C29.9248 8.88 29.8608 9.664 29.7968 10.416C29.7328 11.152 29.6768 11.816 29.6288 12.408C29.5968 13 29.5808 13.448 29.5808 13.752C29.5808 14.168 29.6528 14.464 29.7968 14.64C29.9568 14.816 30.1248 14.944 30.3008 15.024C30.4768 15.088 30.6368 15.136 30.7808 15.168C30.9408 15.184 31.0208 15.232 31.0208 15.312C31.0208 15.664 30.9808 16.016 30.9008 16.368C30.8208 16.704 30.6768 17.016 30.4688 17.304C30.2608 17.576 29.9728 17.8 29.6048 17.976C29.2528 18.136 28.7968 18.216 28.2368 18.216ZM38.2389 18.24C37.5349 18.24 36.8309 18.152 36.1269 17.976C35.4389 17.8 34.8149 17.496 34.2549 17.064C33.7109 16.632 33.2629 16.056 32.9109 15.336C32.5589 14.616 32.3829 13.712 32.3829 12.624C32.3829 12.224 32.4149 11.744 32.4789 11.184C32.5429 10.624 32.6629 10.048 32.8389 9.456C33.0309 8.864 33.2869 8.28 33.6069 7.704C33.9429 7.112 34.3749 6.584 34.9029 6.12C35.4309 5.656 36.0709 5.28 36.8229 4.992C37.5749 4.704 38.4709 4.56 39.5109 4.56C40.3429 4.56 41.0469 4.656 41.6229 4.848C42.1989 5.04 42.6629 5.304 43.0149 5.64C43.3669 5.96 43.6229 6.336 43.7829 6.768C43.9429 7.2 44.0229 7.664 44.0229 8.16C44.0229 8.896 43.8709 9.52 43.5669 10.032C43.2789 10.544 42.8949 10.976 42.4149 11.328C41.9509 11.664 41.4309 11.928 40.8549 12.12C40.2789 12.312 39.7109 12.464 39.1509 12.576C38.5909 12.672 38.0709 12.736 37.5909 12.768C37.1269 12.784 36.7669 12.792 36.5109 12.792C36.5109 13.096 36.5509 13.4 36.6309 13.704C36.7269 13.992 36.8629 14.248 37.0389 14.472C37.2149 14.696 37.4469 14.88 37.7349 15.024C38.0229 15.168 38.3749 15.24 38.7909 15.24C39.2069 15.24 39.5269 15.176 39.7509 15.048C39.9909 14.904 40.1829 14.752 40.3269 14.592C40.4709 14.416 40.5909 14.264 40.6869 14.136C40.7989 13.992 40.9429 13.92 41.1189 13.92C41.1989 13.92 41.3349 13.944 41.5269 13.992C41.7349 14.024 41.9429 14.104 42.1509 14.232C42.3589 14.36 42.5429 14.536 42.7029 14.76C42.8629 14.984 42.9429 15.272 42.9429 15.624C42.9429 16.088 42.7989 16.488 42.5109 16.824C42.2229 17.16 41.8469 17.432 41.3829 17.64C40.9349 17.848 40.4309 18 39.8709 18.096C39.3109 18.192 38.7669 18.24 38.2389 18.24ZM38.6949 7.752C38.3429 7.752 38.0389 7.856 37.7829 8.064C37.5429 8.256 37.3349 8.504 37.1589 8.808C36.9989 9.112 36.8709 9.448 36.7749 9.816C36.6949 10.184 36.6309 10.536 36.5829 10.872C37.5749 10.856 38.3749 10.688 38.9829 10.368C39.6069 10.048 39.9189 9.592 39.9189 9C39.9189 8.68 39.8149 8.392 39.6069 8.136C39.4149 7.88 39.1109 7.752 38.6949 7.752ZM51.7826 9.144C52.1186 8.712 52.4466 8.232 52.7666 7.704C53.0866 7.16 53.3826 6.664 53.6546 6.216C53.9426 5.752 54.1986 5.368 54.4226 5.064C54.6466 4.744 54.8306 4.584 54.9746 4.584C55.0866 4.584 55.2466 4.672 55.4546 4.848C55.6786 5.024 55.8946 5.248 56.1026 5.52C56.3266 5.792 56.5186 6.104 56.6786 6.456C56.8386 6.792 56.9186 7.128 56.9186 7.464C56.9186 8.152 56.5746 8.816 55.8866 9.456C55.1986 10.08 54.3026 10.776 53.1986 11.544C53.8866 12.568 54.4706 13.44 54.9506 14.16C55.4306 14.88 55.8226 15.48 56.1266 15.96C56.4466 16.424 56.6786 16.784 56.8226 17.04C56.9666 17.296 57.0386 17.472 57.0386 17.568C57.0386 17.68 56.9746 17.784 56.8466 17.88C56.7186 17.96 56.5426 18 56.3186 18H54.6866C53.8546 18 53.1746 17.8 52.6466 17.4C52.1186 17 51.6706 16.416 51.3026 15.648L50.3426 13.728C49.7346 14.416 49.2306 15.04 48.8306 15.6C48.4466 16.16 48.1266 16.64 47.8706 17.04C47.6146 17.424 47.4066 17.728 47.2466 17.952C47.0866 18.16 46.9266 18.264 46.7666 18.264C46.6546 18.264 46.4786 18.208 46.2386 18.096C46.0146 17.984 45.7826 17.824 45.5426 17.616C45.3026 17.392 45.0946 17.128 44.9186 16.824C44.7426 16.504 44.6546 16.136 44.6546 15.72C44.6546 15.368 44.7346 15.032 44.8946 14.712C45.0546 14.376 45.3026 14.048 45.6386 13.728C45.9906 13.392 46.4306 13.04 46.9586 12.672C47.4866 12.304 48.1266 11.896 48.8786 11.448C48.3506 10.504 47.8626 9.68 47.4146 8.976C46.9826 8.272 46.6066 7.68 46.2866 7.2C45.9826 6.704 45.7426 6.304 45.5666 6C45.3906 5.696 45.3026 5.464 45.3026 5.304C45.3026 5.144 45.4066 5.024 45.6146 4.944C45.8386 4.848 46.2386 4.8 46.8146 4.8C47.4386 4.8 47.9586 4.856 48.3746 4.968C48.7906 5.064 49.1426 5.208 49.4306 5.4C49.7186 5.592 49.9506 5.824 50.1266 6.096C50.3186 6.368 50.5026 6.672 50.6786 7.008L51.7826 9.144Z" fill="white"/>
</svg>
